HIERARCHY
ROOT Hips
{
	OFFSET 0.000000 0.000000 0.000000 
	CHANNELS 6 Xposition Yposition Zposition Zrotation Yrotation Xrotation
	JOINT LeftUpLeg
	{
		OFFSET 1.363060 -1.794630 0.839290 
		CHANNELS 3 Zrotation Yrotation Xrotation
		JOINT LeftLeg
		{
			OFFSET 2.448110 -6.726130 0.000000 
			CHANNELS 3 Zrotation Yrotation Xrotation
			JOINT LeftFoot
			{
				OFFSET 2.562200 -7.039590 0.000000 
				CHANNELS 3 Zrotation Yrotation Xrotation
				JOINT LeftToeBase
				{
					OFFSET 0.157640 -0.433110 2.322550 
					CHANNELS 3 Zrotation Yrotation Xrotation
					End Site
					{
						OFFSET 0.000000 0.000000 0.000000 
					}
				}
			}
		}
	}
	JOINT RightUpLeg
	{
		OFFSET -1.305520 -1.794630 0.839290 
		CHANNELS 3 Zrotation Yrotation Xrotation
		JOINT RightLeg
		{
			OFFSET -2.542530 -6.985550 0.000000 
			CHANNELS 3 Zrotation Yrotation Xrotation
			JOINT RightFoot
			{
				OFFSET -2.568260 -7.056230 0.000000 
				CHANNELS 3 Zrotation Yrotation Xrotation
				JOINT RightToeBase
				{
					OFFSET -0.164730 -0.452590 2.363150 
					CHANNELS 3 Zrotation Yrotation Xrotation
					End Site
					{
						OFFSET 0.000000 0.000000 0.000000 
					}
				}
			}
		}
	}
	JOINT Spine
	{
		OFFSET 0.028270 2.035590 -0.193380 
		CHANNELS 3 Zrotation Yrotation Xrotation
		JOINT Spine1
		{
			OFFSET 0.056720 2.048850 -0.042750 
			CHANNELS 3 Zrotation Yrotation Xrotation
			JOINT Neck1
			{
				OFFSET -0.054170 1.746240 0.172020 
				CHANNELS 3 Zrotation Yrotation Xrotation
				JOINT Head
				{
					OFFSET 0.104070 1.761360 -0.123970 
					CHANNELS 3 Zrotation Yrotation Xrotation
					End Site
					{
						OFFSET 0.000000 0.000000 0.000000 
					}
				}
			}
			JOINT LeftArm
			{
				OFFSET 3.362410 1.200890 -0.311210 
				CHANNELS 3 Zrotation Yrotation Xrotation
				JOINT LeftForeArm
				{
					OFFSET 4.983000 -0.000000 -0.000000 
					CHANNELS 3 Zrotation Yrotation Xrotation
					JOINT LeftHand
					{
						OFFSET 3.483560 -0.000000 -0.000000 
						CHANNELS 3 Zrotation Yrotation Xrotation
						JOINT LeftHandIndex1
						{
							OFFSET 0.715260 -0.000000 -0.000000 
							CHANNELS 3 Zrotation Yrotation Xrotation
							End Site
							{
								OFFSET 0.000000 0.000000 0.000000 
							}
						}
					}
				}
			}
			JOINT RightArm
			{
				OFFSET -3.136600 1.374050 -0.404650 
				CHANNELS 3 Zrotation Yrotation Xrotation
				JOINT RightForeArm
				{
					OFFSET -5.241900 -0.000000 -0.000000 
					CHANNELS 3 Zrotation Yrotation Xrotation
					JOINT RightHand
					{
						OFFSET -3.444170 -0.000000 -0.000000 
						CHANNELS 3 Zrotation Yrotation Xrotation
						JOINT RightHandIndex1
						{
							OFFSET -0.622530 -0.000000 -0.000000 
							CHANNELS 3 Zrotation Yrotation Xrotation
							End Site
							{
								OFFSET 0.000000 0.000000 0.000000 
							}
						}
					}
				}
			}
		}
	}
}
MOTION
Frames: 15
Frame Time: 0.041667
-0.785177 18.307645 6.074132 -3.915756 -3.418346 0.566439 -10.371315 -8.416342 -4.390785 0.970333 6.892239 22.989949 -0.643024 6.866682 -15.341236 8.405200 -16.409400 -54.009500 20.805597 3.798862 7.915441 0.423355 1.036457 1.695073 0.188790 -4.764368 -13.396555 -0.136100 2.378000 -6.551500 -0.547290 1.133763 27.931383 -2.335857 1.199478 -15.429554 3.812825 -2.692173 19.463842 0.501400 -0.863100 7.085400 -91.022432 9.612626 32.776122 27.692207 -36.819683 -7.745200 0.408684 0.304702 -1.060135 -7.125000 0.000000 0.000000 95.082509 -10.595337 22.359343 -32.364134 40.436388 -8.872288 2.180742 -2.832612 13.041378 7.125000 0.000000 0.000000 
-0.785471 18.308135 6.074329 -3.870118 -3.429571 0.583795 -10.412688 -8.442069 -4.385535 0.964953 6.886106 22.968946 -0.659293 6.928744 -15.336985 8.413500 -16.415100 -54.038700 20.769250 3.816533 7.895446 0.423315 1.036355 1.694780 0.190287 -4.768130 -13.388209 -0.129400 2.318600 -6.387100 -0.654806 1.157550 27.924265 -2.296352 1.209204 -15.422065 3.791499 -2.693397 19.432228 0.493000 -0.865100 7.075900 -90.983385 9.619546 32.863129 27.809712 -36.923043 -7.792728 0.393503 0.312764 -1.039036 -7.125000 0.000000 0.000000 95.118206 -10.608879 22.330701 -32.377423 40.449727 -8.875610 2.176898 -2.831914 13.061792 7.125000 0.000000 0.000000 
-0.785471 18.308429 6.074819 -3.836090 -3.437138 0.596762 -10.443026 -8.460643 -4.391668 0.965448 6.886233 22.970871 -0.649580 6.896697 -15.352814 8.387100 -16.396700 -53.945500 20.738565 3.831070 7.877150 0.423574 1.036352 1.694408 0.194815 -4.790350 -13.381586 -0.134100 2.360200 -6.502300 -0.714976 1.161339 27.947168 -2.258942 1.212628 -15.407574 3.738817 -2.672531 19.307825 0.478600 -0.861400 7.042300 -90.971273 9.608591 32.837069 27.820654 -36.930310 -7.797958 0.393925 0.310181 -1.030679 -7.125000 0.000000 0.000000 95.126013 -10.599217 22.369700 -32.384991 40.457730 -8.873990 2.177305 -2.828511 13.061405 7.125000 0.000000 0.000000 
-0.784686 18.308724 6.075604 -3.850245 -3.439004 0.614610 -10.421456 -8.381607 -4.448531 0.968564 6.885706 22.970311 -0.637396 6.831254 -15.299456 8.385600 -16.395700 -53.940000 20.748439 3.839739 7.858863 0.423654 1.036800 1.694422 0.195488 -4.793519 -13.381213 -0.140100 2.412200 -6.646300 -0.700586 1.148007 27.989156 -2.272416 1.204111 -15.374515 3.727969 -2.663417 19.154686 0.474300 -0.861500 7.003300 -90.983452 9.590628 32.783295 27.822675 -36.933458 -7.799654 0.394689 0.309616 -1.005875 -7.125000 0.000000 0.000000 95.130669 -10.566842 22.404860 -32.369786 40.444029 -8.860129 2.175315 -2.826102 13.087667 7.125000 0.000000 0.000000 
-0.783509 18.308724 6.076193 -3.889863 -3.455125 0.618734 -10.366727 -8.267668 -4.505005 0.970675 6.885997 22.966519 -0.638080 6.807120 -15.220275 8.408900 -16.412000 -54.022700 20.791910 3.851658 7.864800 0.423407 1.038131 1.695031 0.193586 -4.774327 -13.366055 -0.139400 2.406100 -6.629300 -0.739155 1.156725 28.011874 -2.315449 1.194748 -15.361860 3.809808 -2.679827 19.072811 0.486600 -0.863100 6.983700 -90.949352 9.588493 32.806790 27.824593 -36.936825 -7.801345 0.395635 0.311945 -1.033653 -7.125000 0.000000 0.000000 95.179991 -10.546003 22.374583 -32.366953 40.450317 -8.862280 2.174428 -2.829603 13.127323 7.125000 0.000000 0.000000 
-0.782528 18.308331 6.076585 -3.853961 -3.471534 0.584158 -10.401698 -8.247103 -4.472754 0.970029 6.884095 22.962983 -0.635496 6.802845 -15.235600 8.404500 -16.408900 -54.007000 20.756933 3.855794 7.899395 0.423270 1.038815 1.695354 0.194312 -4.773552 -13.357554 -0.138100 2.395500 -6.600100 -0.834162 1.168538 28.037042 -2.279197 1.197119 -15.380548 3.777335 -2.666833 19.046742 0.472900 -0.856800 6.975900 -90.925493 9.592623 32.836162 27.828744 -36.939229 -7.802810 0.395106 0.313423 -1.082912 -7.125000 0.000000 0.000000 95.201338 -10.555646 22.370478 -32.382401 40.478067 -8.881019 2.175783 -2.836383 13.149991 7.125000 0.000000 0.000000 
-0.782332 18.307448 6.077174 -3.781326 -3.468458 0.540941 -10.486129 -8.259587 -4.416097 0.968870 6.879107 22.958294 -0.636242 6.813755 -15.259149 8.404800 -16.409100 -54.008000 20.676199 3.843890 7.933084 0.423075 1.038473 1.695244 0.195065 -4.778740 -13.360178 -0.143100 2.438300 -6.718500 -0.867333 1.161310 28.072894 -2.204181 1.205489 -15.396442 3.654068 -2.637827 18.987892 0.443400 -0.852700 6.957800 -90.949485 9.578848 32.824434 27.824295 -36.933302 -7.799113 0.393446 0.312271 -1.112923 -7.125000 0.000000 0.000000 95.184425 -10.580798 22.378638 -32.393494 40.492748 -8.889379 2.175320 -2.838227 13.182650 7.125000 0.000000 0.000000 
-0.782136 18.307252 6.077860 -3.745029 -3.468026 0.549253 -10.528728 -8.235106 -4.427384 0.967712 6.875543 22.951132 -0.647783 6.846502 -15.223497 8.422900 -16.421700 -54.072000 20.634860 3.849265 7.921357 0.423105 1.037842 1.694727 0.198734 -4.796006 -13.352605 -0.150100 2.496400 -6.879600 -0.864584 1.160829 28.073348 -2.176054 1.212143 -15.380562 3.602571 -2.617427 18.889287 0.433500 -0.849900 6.930200 -90.968055 9.559030 32.826809 27.808951 -36.917407 -7.790337 0.393152 0.311134 -1.129753 -7.125000 0.000000 0.000000 95.181801 -10.586168 22.342245 -32.378982 40.475390 -8.875722 2.174252 -2.834942 13.238410 7.125000 0.000000 0.000000 
-0.780860 18.307841 6.078841 -3.734528 -3.479203 0.586661 -10.545366 -8.223374 -4.461673 0.966765 6.876257 22.950348 -0.652861 6.866139 -15.220964 8.413900 -16.415400 -54.040300 20.620669 3.872827 7.884637 0.423216 1.037234 1.694099 0.203043 -4.814018 -13.340255 -0.143800 2.443700 -6.733600 -0.866628 1.169692 28.043167 -2.185377 1.215022 -15.356830 3.626294 -2.614189 18.809681 0.441500 -0.849800 6.908600 -90.976949 9.550859 32.828120 27.789801 -36.898580 -7.779964 0.393222 0.311517 -1.111578 -7.125000 0.000000 0.000000 95.178055 -10.570144 22.323806 -32.352450 40.443321 -8.853833 2.175499 -2.829470 13.280970 7.125000 0.000000 0.000000 
-0.779781 18.307546 6.079234 -3.774615 -3.483232 0.568778 -10.511525 -8.202615 -4.453625 0.969327 6.879124 22.960147 -0.641574 6.827314 -15.236905 8.396900 -16.403600 -53.980100 20.653259 3.868481 7.906659 0.423069 1.037908 1.694592 0.201044 -4.802211 -13.339616 -0.132400 2.345100 -6.460300 -0.803878 1.163729 28.066387 -2.233384 1.208535 -15.367185 3.658457 -2.632993 18.758302 0.447200 -0.857900 6.896300 -90.980013 9.552811 32.815692 27.790834 -36.902630 -7.780026 0.392083 0.310847 -1.039443 -7.125000 0.000000 0.000000 95.182570 -10.557166 22.331769 -32.342634 40.432048 -8.842986 2.176463 -2.825473 13.288694 7.125000 0.000000 0.000000 
-0.779389 18.306860 6.079528 -3.839887 -3.476540 0.517711 -10.464602 -8.195222 -4.409613 0.972432 6.879845 22.970520 -0.633011 6.798174 -15.253401 8.396300 -16.403100 -53.977800 20.699810 3.843841 7.963086 0.422875 1.038429 1.695316 0.196584 -4.784492 -13.353425 -0.129200 2.317100 -6.382700 -0.610289 1.122286 28.114665 -2.298078 1.194213 -15.391047 3.658237 -2.634794 18.746345 0.449000 -0.859800 6.892000 -91.005779 9.564889 32.781438 27.801477 -36.917487 -7.786218 0.391653 0.308677 -0.966445 -7.125000 0.000000 0.000000 95.173445 -10.558787 22.343730 -32.334394 40.425408 -8.838567 2.176891 -2.825357 13.270203 7.125000 0.000000 0.000000 
-0.779389 18.306271 6.079528 -3.866451 -3.464662 0.489609 -10.459433 -8.214172 -4.382233 0.973062 6.878672 22.975183 -0.641435 6.828916 -15.251202 8.411800 -16.413900 -54.032700 20.707661 3.826202 7.986907 0.422639 1.038226 1.695448 0.194744 -4.777837 -13.361249 -0.126800 2.295400 -6.322600 -0.432947 1.073638 28.155670 -2.337147 1.180782 -15.396904 3.709241 -2.626174 18.725391 0.469100 -0.855100 6.886100 -91.057043 9.562983 32.732884 27.814195 -36.935079 -7.793320 0.390380 0.309306 -0.961946 -7.125000 0.000000 0.000000 95.139856 -10.546757 22.367653 -32.315475 40.407879 -8.830974 2.177106 -2.826845 13.255787 7.125000 0.000000 0.000000 
-0.778997 18.306369 6.079528 -3.818193 -3.459786 0.476816 -10.506264 -8.197537 -4.388470 0.974348 6.878224 22.978390 -0.644063 6.828002 -15.216620 8.417000 -16.417600 -54.051300 20.658749 3.821344 7.986383 0.422329 1.038563 1.695484 0.196029 -4.778736 -13.349428 -0.129100 2.316500 -6.381100 -0.470838 1.067477 28.211348 -2.318273 1.179812 -15.389484 3.844998 -2.653522 18.738896 0.504400 -0.859500 6.895500 -91.089755 9.553309 32.713746 27.857179 -36.980283 -7.813837 0.386400 0.312974 -0.980347 -7.125000 0.000000 0.000000 95.117511 -10.529900 22.406097 -32.313842 40.408184 -8.832821 2.174975 -2.829016 13.224757 7.125000 0.000000 0.000000 
-0.778604 18.306958 6.079528 -3.742053 -3.473121 0.468667 -10.573649 -8.177945 -4.388500 0.974551 6.876844 22.976528 -0.638098 6.804523 -15.213162 8.396700 -16.403400 -53.979300 20.590689 3.834222 7.987195 0.422085 1.038929 1.695401 0.198338 -4.782418 -13.332891 -0.138300 2.396900 -6.603900 -0.609623 1.089856 28.252902 -2.262637 1.189602 -15.380471 3.871765 -2.699554 18.795046 0.506500 -0.878000 6.914400 -91.090326 9.553053 32.726453 27.906278 -37.026576 -7.837741 0.384273 0.314280 -0.977546 -7.125000 0.000000 0.000000 95.109071 -10.522373 22.459227 -32.310684 40.407819 -8.831054 2.170323 -2.830666 13.205761 7.125000 0.000000 0.000000 
-0.778114 18.306860 6.079135 -3.746977 -3.493029 0.451915 -10.574704 -8.191070 -4.358242 0.974044 6.875181 22.973617 -0.631114 6.787805 -15.243205 8.369300 -16.384300 -53.882300 20.593881 3.847412 8.007576 0.422069 1.039213 1.695529 0.198344 -4.781628 -13.331501 -0.139400 2.406500 -6.630500 -0.594240 1.089845 28.273919 -2.269002 1.189276 -15.391232 3.766752 -2.728609 18.868862 0.475800 -0.897100 6.933400 -91.073361 9.555043 32.744680 27.934004 -37.051472 -7.851631 0.384311 0.310575 -0.928153 -7.125000 0.000000 0.000000 95.101219 -10.503095 22.497413 -32.280861 40.383013 -8.813866 2.169200 -2.830559 13.226337 7.125000 0.000000 0.000000 
